PathFileType	4	(X/Y/Z)	c:/Users/goper/Files/vsCode/490R/osim_files/C10/C10_Fast_03.trc
DataRate	CameraRate	NumFrames	NumMarkers	Units                	OrigDataRate	OrigDataStartFrame	OrigNumFrames
250.00	250.00	7	36	mm	250.0	1359	2716
                Frame#	Time	LPSIS			LASIS			LTH1			LTH2			LTH3			LTH4			LLFE			LMFE			LSH1			LSH2			LSH3			LSH4			LLMAL			LMMAL			LCAL			LMTP5			LTOE			LMTP1			RPSIS			RASIS			RTH1			RTH2			RTH3			RTH4			RLFE			RMFE			RSH1			RSH2			RSH3			RSH4			RLMAL			RMMAL			RCAL			RMTP1			RTOE			RMTP5		
		X1	Y1	Z1	X2	Y2	Z2	X3	Y3	Z3	X4	Y4	Z4	X5	Y5	Z5	X6	Y6	Z6	X7	Y7	Z7	X8	Y8	Z8	X9	Y9	Z9	X10	Y10	Z10	X11	Y11	Z11	X12	Y12	Z12	X13	Y13	Z13	X14	Y14	Z14	X15	Y15	Z15	X16	Y16	Z16	X17	Y17	Z17	X18	Y18	Z18	X19	Y19	Z19	X20	Y20	Z20	X21	Y21	Z21	X22	Y22	Z22	X23	Y23	Z23	X24	Y24	Z24	X25	Y25	Z25	X26	Y26	Z26	X27	Y27	Z27	X28	Y28	Z28	X29	Y29	Z29	X30	Y30	Z30	X31	Y31	Z31	X32	Y32	Z32	X33	Y33	Z33	X34	Y34	Z34	X35	Y35	Z35	X36	Y36	Z36

1359	5.43200	-3191.27197	1031.43518	368.08096	0.00000	0.00000	0.00000	0.00000	0.00000	0.00000	-3151.37964	771.06036	397.24890	0.00000	0.00000	0.00000	-3169.07007	726.33722	391.20468	0.00000	0.00000	0.00000	-3190.58105	454.05731	339.49945	-3502.20801	641.67719	330.44968	0.00000	0.00000	0.00000	0.00000	0.00000	0.00000	-3574.36401	634.86395	336.50781	0.00000	0.00000	0.00000	-2976.07642	209.01402	314.56097	-2894.81885	202.72865	269.17508	0.00000	0.00000	0.00000	-3003.97607	1033.29822	150.23148	0.00000	0.00000	0.00000	0.00000	0.00000	0.00000	-3165.97632	1020.53979	34.76421	0.00000	0.00000	0.00000	-3095.35742	711.44409	-9.35401	0.00000	0.00000	0.00000	0.00000	0.00000	0.00000	-3144.18115	490.13763	54.39308	0.00000	0.00000	0.00000	-3069.66992	398.86050	41.75909	-3079.35327	353.61578	40.05925	0.00000	0.00000	0.00000	0.00000	0.00000	0.00000	-3086.79956	91.89695	91.45000	0.00000	0.00000	0.00000	-3029.32007	47.50265	133.23520	0.00000	0.00000	0.00000	-3248.19922	50.80338	117.45325	-3201.18677	36.50949	56.79658
1360	5.43600	-3196.75781	1032.56799	367.44406	0.00000	0.00000	0.00000	0.00000	0.00000	0.00000	-3157.55298	771.99695	397.26779	0.00000	0.00000	0.00000	-3175.65723	727.50970	391.26096	-3224.84863	485.95023	325.88635	0.00000	0.00000	0.00000	0.00000	0.00000	0.00000	-3076.40649	726.05548	-23.75302	0.00000	0.00000	0.00000	0.00000	0.00000	0.00000	0.00000	0.00000	0.00000	-2993.29492	204.65858	314.40231	-2910.21094	196.52991	268.54568	0.00000	0.00000	0.00000	-3009.33374	1033.71460	149.59882	0.00000	0.00000	0.00000	0.00000	0.00000	0.00000	-3171.12891	1020.52661	34.43234	0.00000	0.00000	0.00000	-3098.82227	711.63806	-9.28539	0.00000	0.00000	0.00000	0.00000	0.00000	0.00000	-3145.50415	490.02100	54.19824	-3161.96997	489.62750	167.77708	-3070.51685	399.09558	41.91211	-3080.29321	353.70981	40.16872	0.00000	0.00000	0.00000	0.00000	0.00000	0.00000	-3086.94482	92.01390	91.51426	0.00000	0.00000	0.00000	-3029.41138	47.53757	133.29645	0.00000	0.00000	0.00000	-3248.13867	50.70263	117.41322	-3201.19165	36.52247	56.82504
1361	5.44000	-3202.42627	1033.73706	366.75781	0.00000	0.00000	0.00000	0.00000	0.00000	0.00000	-3163.77563	772.97076	397.20377	0.00000	0.00000	0.00000	-3184.72095	730.75085	391.76184	-3235.24731	487.15555	325.52420	0.00000	0.00000	0.00000	0.00000	0.00000	0.00000	0.00000	0.00000	0.00000	0.00000	0.00000	0.00000	-3235.72900	765.96185	402.03378	0.00000	0.00000	0.00000	-3008.63354	200.66632	313.71970	-2925.77466	190.29642	267.83191	0.00000	0.00000	0.00000	-2991.22070	1038.71021	144.10130	0.00000	0.00000	0.00000	0.00000	0.00000	0.00000	-3176.32837	1020.53619	34.03591	0.00000	0.00000	0.00000	-3102.22705	711.81073	-9.26767	0.00000	0.00000	0.00000	0.00000	0.00000	0.00000	-3146.81152	489.92844	53.95381	0.00000	0.00000	0.00000	-3071.31616	399.33615	42.02602	-3081.18506	353.85733	40.23446	0.00000	0.00000	0.00000	0.00000	0.00000	0.00000	-3087.06543	92.10532	91.60014	0.00000	0.00000	0.00000	-3029.43213	47.58178	133.34599	0.00000	0.00000	0.00000	0.00000	0.00000	0.00000	-3201.23315	36.54208	56.83242
1362	5.44400	-3208.14844	1034.85266	366.08908	0.00000	0.00000	0.00000	0.00000	0.00000	0.00000	-3169.93921	773.89929	397.17816	0.00000	0.00000	0.00000	-3191.34814	731.87665	391.77902	-3245.61011	488.24136	325.15652	0.00000	0.00000	0.00000	0.00000	0.00000	0.00000	-3020.22339	1034.17078	148.46878	0.00000	0.00000	0.00000	0.00000	0.00000	0.00000	0.00000	0.00000	0.00000	-3024.00439	196.50450	313.04248	-2941.36108	184.00342	267.13312	-2800.18286	274.71429	340.96677	0.00000	0.00000	0.00000	0.00000	0.00000	0.00000	0.00000	0.00000	0.00000	-3181.40381	1020.49249	33.64797	0.00000	0.00000	0.00000	-3105.75806	712.01135	-9.26602	0.00000	0.00000	0.00000	0.00000	0.00000	0.00000	-3148.20972	489.85126	53.63044	-3236.31812	436.74173	82.25851	-3072.23535	399.57559	42.11301	-3081.74243	354.09473	40.32474	0.00000	0.00000	0.00000	0.00000	0.00000	0.00000	-3087.25513	92.24275	91.64703	0.00000	0.00000	0.00000	-3029.44360	47.67316	133.37991	0.00000	0.00000	0.00000	0.00000	0.00000	0.00000	-3201.26074	36.53550	56.84182
1363	5.44800	-3213.88623	1035.88306	365.38034	0.00000	0.00000	0.00000	0.00000	0.00000	0.00000	-3173.68311	773.01721	397.13470	0.00000	0.00000	0.00000	-3197.90918	732.97217	391.79968	0.00000	0.00000	0.00000	-3238.05444	453.96207	338.91992	0.00000	0.00000	0.00000	0.00000	0.00000	0.00000	-3279.86108	-119.97543	-103.25534	-3247.07349	-142.59099	-75.11762	0.00000	0.00000	0.00000	-3039.70801	192.34380	312.34427	-2957.17188	177.68309	266.39542	-2801.04028	274.48944	340.59616	0.00000	0.00000	0.00000	0.00000	0.00000	0.00000	0.00000	0.00000	0.00000	-3186.41064	1020.38519	33.19091	0.00000	0.00000	0.00000	-3109.47510	712.10437	-9.30082	0.00000	0.00000	0.00000	0.00000	0.00000	0.00000	-3149.49048	489.70270	53.34293	0.00000	0.00000	0.00000	-3073.21680	399.83951	42.18808	-3071.56860	357.66718	42.24992	0.00000	0.00000	0.00000	0.00000	0.00000	0.00000	-3087.36597	92.34662	91.69308	0.00000	0.00000	0.00000	-3029.46606	47.74748	133.39644	0.00000	0.00000	0.00000	-3254.29932	53.38251	119.15977	-3201.30518	36.55137	56.82601
1364	5.45200	-3219.69824	1036.88477	364.64288	0.00000	0.00000	0.00000	0.00000	0.00000	0.00000	-3179.86230	773.89294	397.12747	0.00000	0.00000	0.00000	-3204.30591	733.98871	391.82159	0.00000	0.00000	0.00000	-3249.81616	453.65457	338.87842	-2983.17212	145.41556	238.94881	-3007.71240	102.79858	236.98866	0.00000	0.00000	0.00000	0.00000	0.00000	0.00000	0.00000	0.00000	0.00000	-3055.38184	188.09529	311.72287	-2973.51709	171.20578	265.62387	-2802.01855	274.37381	340.05826	0.00000	0.00000	0.00000	0.00000	0.00000	0.00000	0.00000	0.00000	0.00000	-3191.41870	1020.24689	32.74382	0.00000	0.00000	0.00000	-3113.04956	712.30652	-9.37966	0.00000	0.00000	0.00000	0.00000	0.00000	0.00000	-3150.93628	489.62918	52.95902	-3171.23071	488.74380	166.11745	-3074.34106	400.09888	42.22068	-3072.63501	357.90399	42.18600	0.00000	0.00000	0.00000	0.00000	0.00000	0.00000	-3087.55029	92.48088	91.71290	0.00000	0.00000	0.00000	-3029.54980	47.77656	133.39326	0.00000	0.00000	0.00000	0.00000	0.00000	0.00000	-3201.32275	36.52987	56.82048
1365	5.45600	-3225.53052	1037.81128	363.95447	0.00000	0.00000	0.00000	0.00000	0.00000	0.00000	-3185.91748	774.69000	397.17413	0.00000	0.00000	0.00000	-3210.76709	734.96204	391.87320	0.00000	0.00000	0.00000	0.00000	0.00000	0.00000	0.00000	0.00000	0.00000	0.00000	0.00000	0.00000	-3279.99097	-119.72702	-103.33885	-3247.09009	-142.60262	-75.03529	0.00000	0.00000	0.00000	-3071.35278	183.85120	311.05911	-2989.94409	164.73706	264.80377	0.00000	0.00000	0.00000	-3036.26880	1034.10876	147.06094	0.00000	0.00000	0.00000	0.00000	0.00000	0.00000	-3196.33154	1020.03503	32.25845	0.00000	0.00000	0.00000	-3116.87231	712.36426	-9.51650	-3138.80811	775.17236	-32.63226	0.00000	0.00000	0.00000	-3152.38428	489.50287	52.63367	0.00000	0.00000	0.00000	-3075.49219	400.35431	42.22944	-3073.74243	358.11636	42.14798	0.00000	0.00000	0.00000	0.00000	0.00000	0.00000	-3087.71851	92.60399	91.75423	0.00000	0.00000	0.00000	-3029.62769	47.83568	133.42151	0.00000	0.00000	0.00000	0.00000	0.00000	0.00000	-3201.38428	36.51853	56.79157
